<?xml version="1.0" standalone="no"?>
<!DOCTYPE svg PUBLIC "-//W3C//DTD SVG 20010904//EN"
 "http://www.w3.org/TR/2001/REC-SVG-20010904/DTD/svg10.dtd">
<svg version="1.0" xmlns="http://www.w3.org/2000/svg"
 width="777.000000pt" height="722.000000pt" viewBox="0 0 777.000000 722.000000"
 preserveAspectRatio="xMidYMid meet">

<g transform="translate(0.000000,722.000000) scale(0.100000,-0.100000)"
fill="#000000" stroke="none">
<path d="M930 6440 c0 -11 5 -20 10 -20 6 0 5 -6 -2 -14 -7 -8 -14 -10 -16 -5
-5 14 -17 11 -40 -10 -26 -22 -29 -36 -6 -27 12 5 15 2 10 -10 -3 -8 -6 -23
-6 -32 0 -14 -2 -15 -10 -2 -14 23 -25 3 -12 -24 8 -19 8 -27 -2 -35 -7 -6
-16 -8 -20 -4 -3 4 -13 -2 -21 -13 -12 -15 -16 -16 -23 -6 -16 23 -20 -30 -6
-63 7 -17 13 -25 14 -18 0 7 7 10 15 7 13 -5 19 5 17 28 -2 11 27 18 33 7 4
-5 11 -7 16 -4 5 4 9 1 9 -4 0 -6 -3 -11 -7 -11 -5 0 -24 -14 -43 -31 -19 -17
-29 -28 -22 -24 8 4 12 -3 12 -24 0 -21 -5 -31 -15 -31 -8 0 -15 7 -15 15 0 8
-6 15 -14 15 -11 0 -12 -7 -7 -27 5 -18 14 -27 24 -25 11 2 15 -2 11 -12 -3
-8 -12 -12 -21 -9 -11 4 -14 2 -11 -8 3 -8 1 -24 -3 -36 -12 -33 0 -83 20 -81
43 3 91 -3 91 -12 0 -13 -36 -13 -61 0 -16 9 -19 7 -19 -14 0 -14 -8 -41 -17
-61 -9 -19 -14 -37 -12 -40 7 -6 72 17 82 30 4 6 11 4 17 -5 14 -22 12 -33 -5
-26 -8 3 -14 0 -12 -7 1 -7 -10 -13 -26 -15 -32 -4 -59 -42 -30 -43 14 0 15
-2 3 -6 -8 -3 -18 -11 -22 -17 -13 -19 -9 -64 7 -70 20 -7 14 -68 -9 -91 -19
-20 -20 -36 -3 -54 10 -11 10 -13 0 -7 -21 12 -14 -13 7 -26 11 -7 20 -21 20
-31 0 -11 -9 -21 -20 -24 -23 -6 -26 -18 -7 -30 8 -4 17 -17 20 -27 6 -16 5
-17 -7 -7 -23 19 -36 5 -23 -24 7 -14 21 -25 32 -25 l20 -1 -20 -12 c-11 -7
-21 -22 -22 -34 -3 -24 12 -32 20 -10 2 6 3 4 2 -5 -2 -9 8 -26 20 -38 l24
-22 -5 30 c-4 23 0 34 18 46 21 15 23 15 27 0 1 -9 -4 -21 -14 -26 -15 -9 -15
-11 2 -25 10 -8 12 -12 6 -8 -8 4 -13 0 -13 -9 0 -8 6 -16 13 -19 6 -3 -7 -3
-31 -1 -27 2 -41 0 -37 -6 3 -6 -3 -10 -14 -10 -29 0 -35 -17 -13 -36 19 -16
19 -17 2 -34 -11 -11 -15 -27 -12 -48 2 -18 6 -32 7 -32 2 0 16 5 31 10 20 8
24 14 16 22 -7 7 -7 19 -2 34 5 13 6 24 3 24 -4 0 -2 5 4 11 7 7 19 9 29 5 16
-6 16 -7 -1 -20 -23 -17 -12 -36 18 -29 21 4 22 4 3 -11 -16 -13 -17 -19 -8
-28 15 -15 16 -28 2 -28 -5 0 -10 7 -10 15 0 8 -5 15 -11 15 -7 0 -9 -10 -7
-25 6 -31 -7 -42 -21 -18 -10 17 -12 17 -21 1 -6 -10 -16 -18 -22 -18 -7 0 -6
5 2 15 10 12 9 15 -5 15 -13 0 -16 -5 -11 -22 3 -13 6 -27 6 -32 0 -5 8 -2 17
5 9 8 14 9 10 3 -4 -7 2 -23 14 -35 l21 -24 -5 23 c-5 22 15 52 34 52 11 0 8
-22 -4 -31 -5 -3 -9 -22 -10 -41 -2 -35 -3 -35 -27 -23 -33 17 -55 6 -57 -27
-1 -19 3 -28 14 -28 11 0 9 -5 -7 -18 -22 -18 -21 -50 1 -36 5 3 7 9 5 13 -3
4 2 8 10 8 10 0 14 -7 10 -19 -3 -14 0 -18 10 -14 9 3 22 -1 30 -9 12 -12 13
-15 2 -16 -7 -1 -17 -2 -23 -4 -5 -1 -18 -3 -27 -3 -22 -2 -24 -22 -3 -22 8 0
15 -5 15 -11 0 -6 -7 -8 -16 -5 -14 5 -15 4 -4 -9 10 -12 10 -15 -4 -15 -14 0
-16 -9 -11 -60 4 -41 2 -60 -5 -60 -7 0 -10 -5 -8 -12 3 -7 21 -13 41 -15 30
-1 37 2 37 17 0 10 4 21 9 24 5 3 8 -2 7 -12 0 -9 5 -16 12 -14 6 1 12 -2 12
-8 0 -5 -18 -13 -40 -16 -22 -4 -40 -10 -40 -15 0 -5 5 -9 11 -9 8 0 8 -5 -1
-15 -7 -8 -19 -15 -26 -15 -8 0 -14 -9 -14 -21 0 -19 2 -19 21 -5 12 8 28 12
37 9 12 -5 14 -1 9 18 -6 23 -5 23 8 5 19 -25 19 -46 0 -46 -8 0 -15 -5 -15
-11 0 -8 -4 -8 -14 0 -11 9 -19 9 -35 -1 -23 -14 -26 -24 -11 -33 6 -3 10 -1
10 4 0 6 5 11 11 11 6 0 9 -9 6 -20 -3 -11 -1 -23 4 -26 17 -10 9 -25 -11 -19
-18 6 -20 2 -18 -34 1 -30 6 -41 17 -41 14 0 14 -2 1 -10 -8 -5 -12 -11 -9
-15 3 -3 16 4 29 15 13 11 28 20 33 20 6 0 2 -7 -9 -15 -11 -8 -14 -15 -6 -15
6 0 12 -9 12 -19 0 -23 19 -38 29 -23 4 7 12 8 21 2 23 -14 30 -12 23 8 -5 14
-3 13 10 -3 19 -25 12 -37 -17 -29 -16 4 -25 0 -29 -10 -8 -21 -57 -21 -57 -1
0 8 -7 15 -15 15 -14 0 -19 12 -16 33 2 12 -17 8 -21 -5 -7 -21 4 -71 13 -57
5 9 10 5 14 -14 8 -29 22 -36 27 -12 2 10 7 12 18 5 13 -9 13 -11 0 -20 -10
-6 -11 -10 -3 -10 7 0 10 -6 7 -14 -3 -8 5 -21 18 -31 l23 -16 -30 7 c-41 9
-45 12 -39 28 3 8 1 17 -5 21 -7 3 -11 -3 -11 -15 0 -14 -4 -19 -12 -14 -7 4
-5 -2 6 -14 10 -12 22 -19 26 -17 13 8 19 -22 8 -33 -7 -7 -3 -14 11 -22 12
-6 19 -15 15 -21 -7 -12 15 -41 27 -33 11 7 11 -7 0 -25 -5 -8 -16 -11 -25 -8
-14 6 -15 3 -6 -13 6 -11 15 -20 19 -20 5 0 11 -11 13 -25 4 -16 1 -25 -8 -25
-7 0 -19 -3 -28 -6 -11 -4 -16 -1 -16 11 0 9 4 14 9 10 5 -3 12 -1 16 5 4 6
-5 10 -19 10 -20 0 -24 4 -19 18 3 9 3 14 -2 10 -12 -11 -38 21 -31 38 3 8 2
12 -4 9 -15 -10 -8 -58 12 -78 10 -10 18 -24 18 -32 0 -8 11 -17 25 -21 30 -7
34 -25 5 -19 -23 4 -42 -26 -22 -33 7 -2 12 -8 12 -14 0 -6 -7 -8 -14 -5 -12
5 -15 -3 -13 -34 1 -21 4 -39 8 -39 8 0 23 31 21 43 -1 4 5 7 14 7 8 0 13 -4
10 -9 -3 -5 1 -14 9 -21 12 -10 12 -15 -1 -36 -14 -21 -14 -25 -1 -38 8 -8 17
-12 21 -9 9 9 7 -20 -2 -32 -4 -6 -22 -12 -41 -14 -34 -3 -34 -2 -20 21 18 28
18 54 0 50 -7 -1 -10 2 -6 8 3 6 11 8 16 5 5 -4 9 -2 9 4 0 6 -15 10 -33 9
-29 -1 -33 -4 -32 -29 0 -19 5 -28 14 -26 10 1 14 -7 14 -25 -2 -51 -2 -51
-18 -38 -17 14 -17 13 -17 -54 0 -21 5 -42 10 -45 18 -12 23 -48 7 -61 -21
-17 -19 -66 2 -75 10 -3 19 -1 21 4 2 6 9 11 17 11 7 0 18 7 25 15 10 12 9 16
-4 21 -19 7 -21 34 -3 34 23 0 48 -35 40 -56 -9 -24 -22 -34 -51 -34 -19 0
-22 -4 -18 -26 3 -16 0 -27 -10 -31 -21 -8 -17 -23 6 -23 13 0 18 5 14 15 -4
8 -1 15 5 15 6 0 11 7 11 15 0 8 5 15 11 15 5 0 7 -4 4 -10 -9 -14 19 -12 33
2 9 9 12 9 12 0 0 -6 -8 -16 -17 -21 -10 -6 -14 -11 -9 -11 5 0 3 -7 -4 -15
-10 -12 -10 -15 4 -15 9 0 16 -4 16 -10 0 -5 -4 -10 -9 -10 -6 0 -4 -12 3 -26
14 -25 11 -60 -5 -70 -5 -3 -9 -1 -9 4 0 5 -15 8 -33 8 -27 -1 -33 -5 -29 -18
3 -11 -1 -18 -10 -18 -11 0 -14 8 -10 28 2 15 1 24 -4 19 -4 -4 -9 -16 -11
-26 -3 -23 22 -47 32 -31 3 6 11 7 17 4 7 -5 9 -2 5 8 -5 13 -1 14 28 5 40
-12 54 -37 25 -44 -23 -6 -27 -23 -5 -23 22 0 18 -21 -5 -27 -11 -3 -18 -9
-15 -13 8 -14 45 1 45 18 0 13 3 13 12 4 10 -10 6 -18 -20 -38 -34 -27 -43
-50 -16 -40 12 5 15 2 10 -10 -3 -8 -6 -23 -6 -32 0 -14 -2 -15 -10 -2 -14 22
-25 3 -13 -23 13 -28 3 -50 -19 -42 -16 6 -32 -20 -22 -36 3 -5 0 -9 -5 -9 -6
0 -11 5 -11 12 0 9 -3 9 -11 1 -17 -17 -3 -58 19 -60 11 -1 25 9 33 23 11 21
14 23 22 9 6 -12 3 -23 -12 -39 -26 -27 -26 -35 -3 -53 16 -14 16 -14 0 -9
-11 3 -17 0 -15 -6 1 -7 -6 -14 -15 -16 -12 -2 -18 3 -18 13 0 9 -4 14 -9 11
-15 -10 0 -48 16 -42 10 4 13 0 11 -12 -2 -9 -9 -16 -14 -15 -6 1 -11 -3 -11
-10 0 -7 -4 -20 -8 -29 -4 -11 -3 -18 5 -18 6 0 8 5 4 11 -4 8 3 9 25 4 22 -5
31 -3 31 6 0 7 2 10 5 7 11 -11 -8 -38 -26 -38 -10 0 -19 -6 -19 -12 0 -9 -3
-8 -10 2 -8 12 -10 12 -15 -2 -10 -27 -1 -42 26 -43 64 -3 79 -6 79 -15 0 -13
-36 -13 -61 0 -16 9 -19 7 -19 -15 0 -14 -7 -39 -15 -55 -9 -17 -11 -30 -5
-30 5 0 10 5 10 11 0 5 5 7 10 4 6 -4 8 -11 5 -16 -3 -5 1 -6 9 -3 9 3 16 10
16 16 0 5 4 7 9 4 5 -4 11 0 13 6 3 8 9 4 17 -10 11 -20 10 -26 -6 -38 -22
-16 -33 -18 -33 -4 0 6 -5 10 -11 10 -5 0 -8 -4 -4 -9 3 -5 -4 -12 -14 -16
-12 -4 -18 -12 -14 -20 3 -8 9 -12 14 -9 5 3 9 -2 9 -11 0 -9 -5 -13 -10 -10
-13 8 -31 -40 -24 -60 4 -8 12 -15 20 -15 17 0 17 -5 3 -32 -8 -15 -8 -19 0
-14 17 11 13 -20 -4 -34 -11 -9 -12 -17 -6 -23 5 -5 7 -22 4 -37 -5 -29 11
-70 28 -70 6 0 7 4 4 10 -11 18 -14 50 -4 50 15 0 10 22 -8 36 -17 12 -17 13
3 14 27 0 48 -24 42 -48 -3 -12 2 -24 14 -31 18 -11 17 -13 -11 -36 -31 -26
-51 -32 -51 -14 0 5 -4 8 -9 5 -5 -3 -9 -22 -9 -41 0 -28 4 -35 19 -35 10 0
19 5 19 10 0 6 11 10 25 10 14 0 25 -4 25 -10 0 -5 -4 -10 -8 -10 -4 0 -8 -9
-9 -20 -1 -11 2 -20 8 -20 5 0 9 -4 9 -9 0 -6 -9 -9 -19 -8 -10 0 -17 6 -14
13 6 15 -13 28 -22 15 -3 -6 -12 -8 -20 -4 -8 3 -15 0 -15 -6 0 -6 7 -11 15
-11 8 0 15 -4 15 -10 0 -5 15 -12 33 -15 31 -6 32 -8 29 -46 -2 -21 -9 -39
-16 -39 -6 0 -3 -5 7 -11 9 -6 15 -15 12 -20 -4 -5 -11 -7 -16 -4 -5 4 -9 2
-9 -3 0 -15 26 -22 39 -9 8 8 11 7 11 -5 0 -8 -16 -26 -35 -39 -41 -28 -45
-44 -10 -35 18 5 25 2 25 -8 0 -8 -5 -16 -11 -18 -9 -3 -9 -9 0 -25 9 -18 8
-24 -6 -32 -15 -8 -16 -10 -3 -15 8 -2 22 -7 30 -9 9 -4 6 -6 -7 -6 -16 -1
-23 -8 -24 -21 -3 -39 -5 -45 -17 -43 -18 4 -15 -6 11 -30 13 -12 22 -28 20
-34 -3 -7 0 -13 6 -13 6 0 11 10 12 23 0 21 1 21 8 2 5 -11 5 -21 0 -23 -4 -2
-5 -11 -2 -20 6 -16 5 -15 -14 0 -11 10 -25 18 -31 18 -6 0 -12 10 -14 22 -2
13 -7 21 -13 18 -5 -3 -9 -8 -8 -12 2 -5 -2 -8 -7 -8 -6 0 -10 -5 -10 -11 0
-5 4 -8 8 -5 4 3 9 -11 9 -31 1 -46 18 -64 37 -38 13 18 15 18 31 2 9 -10 14
-23 12 -30 -4 -9 -6 -9 -6 1 -1 6 -5 12 -10 12 -6 0 -8 -9 -6 -20 3 -14 -2
-20 -13 -20 -15 0 -14 -3 4 -18 24 -20 59 -74 56 -85 -3 -9 30 -9 43 1 22 16
34 53 30 96 -2 25 0 46 4 46 5 0 8 12 8 28 0 15 3 68 6 117 3 50 2 96 -3 104
-5 9 -3 22 4 35 11 19 12 68 7 224 -1 23 -6 32 -18 32 -14 0 -13 4 7 18 23 16
40 59 17 45 -6 -4 -7 4 -2 23 16 62 28 344 14 344 -5 0 -4 12 1 26 13 34 13
74 -1 74 -7 0 -8 7 -4 18 18 40 22 112 8 132 -10 14 -11 20 -2 20 7 0 9 11 5
35 -4 19 -2 43 4 54 7 14 6 35 -4 73 -12 46 -11 54 2 64 9 6 13 18 9 28 -4 9
-2 16 4 16 6 0 7 5 4 10 -10 17 -14 170 -4 170 13 0 11 44 -3 58 -8 8 -9 15
-2 22 13 13 6 70 -8 70 -7 0 -6 5 1 13 6 8 9 39 8 70 -2 31 1 57 5 57 5 0 4
10 -3 21 -9 17 -8 23 2 30 12 8 12 10 0 18 -9 6 -10 11 -2 15 6 4 11 17 11 29
0 18 -2 19 -10 7 -13 -20 -13 -4 0 20 6 11 6 21 1 25 -6 3 -6 18 0 38 14 49
11 103 -7 118 -14 12 -14 14 2 26 15 11 16 17 6 33 -7 12 -8 21 -2 25 6 3 10
17 10 31 0 17 -4 23 -12 18 -8 -5 -9 -2 -3 12 4 10 9 66 11 124 2 84 -1 109
-13 123 -15 15 -15 17 1 17 13 0 16 8 13 48 -2 27 -7 54 -11 60 -4 7 -2 12 3
12 6 0 11 18 11 41 0 22 -4 38 -9 35 -5 -3 -12 1 -15 10 -10 25 -7 34 9 34 11
0 14 9 11 38 -2 20 -7 45 -11 54 -4 9 -3 23 2 30 10 16 11 328 1 322 -13 -8
-8 40 6 58 18 24 13 277 -6 289 -11 7 -10 11 2 19 11 7 12 12 3 21 -9 9 -9 18
-2 31 13 24 8 150 -6 160 -6 5 -6 8 1 8 7 0 10 13 7 33 -2 17 -6 43 -8 57 -1
14 1 30 5 35 7 8 7 234 0 280 -1 6 1 36 5 69 4 39 2 63 -7 73 -8 10 -8 17 -2
21 13 9 13 191 0 211 -6 10 -6 16 2 19 7 2 12 17 12 33 0 18 -4 28 -10 24 -5
-3 -10 3 -10 14 0 12 6 21 14 21 11 0 14 11 10 48 -7 78 -6 165 2 196 4 19 3
27 -3 23 -6 -4 -13 3 -16 14 -4 14 -11 20 -21 16 -10 -4 -18 4 -25 24 -6 18
-6 27 -1 24 6 -4 10 -12 10 -20 0 -8 9 -13 20 -12 18 1 18 3 -8 32 -15 16 -30
31 -35 33 -4 2 -4 8 -1 14 7 10 -27 39 -38 32 -4 -3 -4 -12 -1 -21 4 -11 3
-14 -5 -9 -7 4 -12 14 -12 22 0 8 -7 14 -15 14 -8 0 -15 -9 -15 -20z m130
-151 c0 -6 -4 -7 -10 -4 -5 3 -10 11 -10 16 0 6 5 7 10 4 6 -3 10 -11 10 -16z
m-60 -19 c0 -5 -2 -10 -4 -10 -3 0 -8 5 -11 10 -3 6 -1 10 4 10 6 0 11 -4 11
-10z m-185 -60 c-3 -5 -11 -10 -16 -10 -6 0 -7 5 -4 10 3 6 11 10 16 10 6 0 7
-4 4 -10z m40 -110 c3 -5 1 -10 -4 -10 -6 0 -11 5 -11 10 0 6 2 10 4 10 3 0 8
-4 11 -10z m65 -24 c0 -3 -4 -8 -10 -11 -5 -3 -10 -1 -10 4 0 6 5 11 10 11 6
0 10 -2 10 -4z m-66 -51 c-7 -16 -24 -21 -24 -6 0 8 7 13 27 20 1 1 0 -6 -3
-14z m0 -50 c-4 -8 -15 -15 -25 -15 -10 0 -19 -5 -19 -12 0 -9 -3 -9 -12 0
-15 15 -2 29 32 35 14 2 26 5 27 6 1 0 0 -6 -3 -14z m192 -22 c-10 -10 -19 5
-10 18 6 11 8 11 12 0 2 -7 1 -15 -2 -18z m-192 -118 c-4 -8 -7 -15 -9 -15 -2
0 -5 7 -9 15 -3 9 0 15 9 15 9 0 12 -6 9 -15z m9 -147 c8 -25 -5 -49 -22 -42
-9 3 -22 7 -28 7 -18 1 -16 6 10 28 26 22 34 23 40 7z m-7 -199 c2 -36 14 -59
33 -59 13 -1 12 -3 -4 -12 -11 -6 -25 -18 -31 -26 -20 -27 -31 -5 -24 44 4 26
5 56 2 67 -3 14 -1 18 9 15 8 -3 15 -16 15 -29z m49 -98 c3 -6 -4 -15 -15 -21
-22 -12 -23 -10 -14 14 7 18 20 21 29 7z m-20 -61 c3 -5 1 -10 -4 -10 -6 0
-11 -7 -11 -16 0 -10 -6 -14 -14 -11 -7 3 -19 0 -25 -6 -16 -16 -15 7 1 33 14
21 43 27 53 10z m-28 -80 c1 -12 -4 -20 -13 -20 -12 0 -12 4 -4 20 6 11 12 20
13 20 2 0 3 -9 4 -20z m3 -146 c0 -8 -7 -14 -15 -14 -15 0 -21 21 -9 33 10 9
24 -2 24 -19z m53 -9 c-3 -9 -8 -14 -10 -11 -3 3 -2 9 2 15 9 16 15 13 8 -4z
m-93 -289 c0 -3 -4 -8 -10 -11 -5 -3 -10 -1 -10 4 0 6 5 11 10 11 6 0 10 -2
10 -4z m70 -6 c0 -5 -4 -10 -9 -10 -6 0 -13 5 -16 10 -3 6 1 10 9 10 9 0 16
-4 16 -10z m-36 -154 c-3 -8 0 -17 6 -21 8 -5 8 -11 -1 -21 -13 -15 -34 -20
-24 -5 3 5 0 13 -5 16 -8 5 -6 13 6 26 20 23 25 24 18 5z m-10 -365 c0 -11 5
-21 12 -21 6 0 15 -7 18 -16 6 -15 4 -15 -16 -2 -24 16 -46 72 -25 65 7 -2 12
-14 11 -26z m49 -595 c4 -10 1 -13 -8 -9 -8 3 -12 9 -9 14 7 12 11 11 17 -5z
m24 -18 c-3 -8 -6 -5 -6 6 -1 11 2 17 5 13 3 -3 4 -12 1 -19z m-53 6 c23 -9
20 -24 -4 -24 -11 0 -20 7 -20 15 0 17 2 18 24 9z m196 -114 c0 -5 -2 -10 -4
-10 -3 0 -8 5 -11 10 -3 6 -1 10 4 10 6 0 11 -4 11 -10z m-260 -20 c0 -5 -2
-10 -4 -10 -3 0 -8 5 -11 10 -3 6 -1 10 4 10 6 0 11 -4 11 -10z m77 -130 c11
-22 10 -27 -9 -43 -24 -20 -44 -17 -40 7 2 9 -1 16 -6 16 -7 0 -8 27 -3 48 1
2 11 2 23 0 12 -2 28 -14 35 -28z m-77 10 c0 -5 -2 -10 -4 -10 -3 0 -8 5 -11
10 -3 6 -1 10 4 10 6 0 11 -4 11 -10z m130 -314 c0 -3 -4 -8 -10 -11 -5 -3
-10 -1 -10 4 0 6 5 11 10 11 6 0 10 -2 10 -4z m-10 -316 c0 -5 -5 -10 -11 -10
-5 0 -7 5 -4 10 3 6 8 10 11 10 2 0 4 -4 4 -10z m0 -254 c0 -3 -4 -8 -10 -11
-5 -3 -10 -1 -10 4 0 6 5 11 10 11 6 0 10 -2 10 -4z m140 -16 c0 -5 -4 -10
-10 -10 -5 0 -10 5 -10 10 0 6 5 10 10 10 6 0 10 -4 10 -10z m-208 -42 c-6 -6
-15 -8 -19 -4 -4 4 -1 11 7 16 8 5 17 7 19 4 3 -2 -1 -10 -7 -16z m202 -53
c-7 -17 -20 -20 -28 -6 -7 10 3 21 20 21 8 0 11 -6 8 -15z m-200 -130 c-4 -8
-7 -15 -9 -15 -2 0 -5 7 -9 15 -3 9 0 15 9 15 9 0 12 -6 9 -15z m9 -147 c9
-30 -5 -48 -32 -41 -34 8 -38 12 -21 23 9 6 18 5 23 -3 6 -8 7 -7 4 5 -6 16 0
28 14 28 4 0 9 -6 12 -12z m40 -125 c-7 -2 -19 -2 -25 0 -7 3 -2 5 12 5 14 0
19 -2 13 -5z m7 -168 c10 -12 8 -16 -11 -24 -30 -11 -46 2 -28 23 18 19 24 20
39 1z m21 -752 c13 -16 12 -17 -3 -4 -10 7 -18 15 -18 17 0 8 8 3 21 -13z m23
-38 c-4 -8 -7 -15 -9 -15 -2 0 -5 7 -9 15 -3 9 0 15 9 15 9 0 12 -6 9 -15z"/>
<path d="M850 3391 c0 -5 5 -13 10 -16 6 -3 10 -2 10 4 0 5 -4 13 -10 16 -5 3
-10 2 -10 -4z"/>
<path d="M850 6418 c0 -11 12 -10 30 2 12 7 10 9 -8 7 -12 0 -22 -5 -22 -9z"/>
<path d="M785 6381 c-20 -8 -20 -8 1 -15 16 -5 20 -12 17 -26 -3 -11 -9 -20
-14 -20 -5 0 -9 -9 -9 -20 0 -11 4 -20 10 -20 5 0 7 8 4 18 -5 15 -4 15 10 -2
19 -23 39 -12 30 17 -6 19 -9 35 -13 70 -1 9 -9 8 -36 -2z"/>
<path d="M6850 6382 c0 -5 -12 -14 -26 -21 -20 -9 -30 -9 -40 0 -9 7 -14 8
-14 1 0 -6 -3 -18 -7 -27 -5 -14 -2 -16 15 -11 18 6 20 3 19 -28 -1 -29 -5
-35 -26 -39 -28 -6 -41 0 -26 11 18 12 15 30 -5 35 -11 3 -20 0 -20 -6 0 -6
-7 -2 -16 9 -14 18 -15 18 -8 -6 4 -14 11 -27 16 -29 5 -1 1 -12 -8 -23 -15
-16 -16 -23 -6 -39 9 -14 9 -19 0 -19 -19 0 1 -14 22 -15 14 -1 17 2 10 10 -6
8 -5 18 5 31 14 19 15 18 21 -3 3 -13 10 -23 15 -23 5 0 9 -5 9 -11 0 -5 -5
-7 -11 -3 -6 3 -3 -5 6 -20 21 -31 13 -46 -11 -22 -10 10 -24 14 -38 11 -17
-5 -18 -4 -6 5 12 9 10 10 -10 8 -17 -2 -25 -9 -25 -23 0 -11 6 -21 13 -21 6
-1 19 -2 27 -3 8 0 15 -6 15 -12 0 -6 -7 -8 -16 -5 -8 3 -12 2 -9 -4 3 -6 0
-10 -8 -10 -15 0 -26 -16 -23 -35 0 -5 7 -9 14 -7 17 4 5 -66 -15 -86 -16 -16
-17 -22 -3 -22 6 0 19 9 30 20 16 16 27 19 48 13 26 -8 27 -9 10 -25 -10 -10
-18 -13 -18 -8 0 6 -6 10 -14 10 -8 0 -13 -8 -11 -17 1 -10 0 -12 -2 -5 -6 17
-16 15 -31 -8 -12 -20 -7 -25 23 -21 6 1 3 -4 -5 -11 -17 -15 -15 -58 3 -58 7
0 4 -5 -5 -11 -21 -12 -23 -40 -6 -57 6 -6 13 -19 14 -27 2 -12 -2 -13 -17 -5
-19 11 -23 22 -19 49 1 13 -1 13 -14 2 -9 -7 -13 -18 -9 -24 3 -5 6 -22 5 -37
0 -23 5 -29 26 -33 17 -4 31 0 38 9 12 15 34 19 34 5 0 -5 -7 -14 -14 -21 -11
-8 -12 -18 -6 -36 5 -13 6 -24 1 -24 -9 0 -8 -31 2 -48 6 -8 3 -10 -7 -6 -9 3
-16 18 -16 33 0 14 -4 33 -10 41 -7 12 -12 11 -30 -5 -24 -22 -27 -100 -3 -91
8 3 13 -2 13 -16 0 -17 -2 -18 -15 -8 -19 15 -17 20 -19 -73 -1 -64 1 -76 13
-72 11 5 11 1 -2 -13 -20 -22 -22 -42 -4 -42 8 0 9 -2 1 -8 -6 -4 -12 -29 -12
-55 -1 -26 -4 -52 -8 -58 -4 -7 3 -9 16 -7 29 4 39 -21 12 -29 -11 -3 -23 -11
-26 -19 -6 -16 10 -29 18 -15 4 6 20 6 42 -1 24 -6 40 -6 46 0 7 7 17 3 29 -9
23 -23 24 -33 4 -25 -8 3 -15 1 -15 -5 0 -6 -5 -7 -10 -4 -6 4 -7 12 -3 18 4
7 0 6 -10 -1 -14 -12 -19 -12 -32 2 -24 24 -35 20 -35 -13 0 -18 -8 -34 -20
-42 -18 -12 -20 -21 -14 -62 4 -29 10 -43 15 -36 5 9 11 9 22 -2 12 -12 12
-18 2 -32 -16 -22 -25 -22 -25 0 0 9 -3 13 -7 9 -4 -4 -8 -31 -8 -60 0 -45 2
-52 18 -48 9 2 17 -1 17 -7 0 -6 -6 -11 -14 -11 -8 0 -17 -7 -20 -16 -5 -12
-2 -15 10 -10 8 3 14 3 12 -1 -2 -5 -10 -20 -18 -36 -10 -21 -11 -30 -2 -39 9
-9 12 -8 12 6 0 9 4 15 10 11 5 -3 7 -12 4 -19 -3 -7 3 -16 12 -20 16 -6 16
-8 -2 -20 -10 -8 -24 -12 -31 -9 -20 8 -15 -15 6 -27 13 -6 17 -16 14 -31 -3
-11 -9 -16 -12 -11 -4 6 -11 4 -19 -4 -10 -11 -8 -16 13 -30 14 -9 35 -14 46
-11 21 6 58 -24 59 -47 0 -6 -6 -1 -14 9 -8 11 -20 16 -29 12 -9 -3 -18 -1
-20 6 -3 7 -10 -1 -17 -18 l-13 -30 -6 25 c-10 35 -21 11 -16 -35 2 -22 -1
-47 -6 -57 -6 -12 -6 -25 0 -36 7 -13 7 -22 -1 -30 -8 -8 -8 -15 0 -25 7 -8
11 -16 9 -18 -1 -2 4 2 11 10 10 12 12 10 12 -13 0 -20 -4 -27 -14 -23 -20 8
-28 -18 -14 -48 12 -26 41 -42 46 -26 2 6 11 11 19 11 11 0 14 -7 11 -24 -3
-16 0 -27 9 -30 11 -5 11 -9 1 -26 -15 -23 -33 -27 -24 -5 4 11 -1 15 -19 15
-14 0 -24 3 -24 8 1 4 1 16 0 27 -2 18 -3 18 -12 -3 -6 -16 -5 -31 3 -45 16
-30 21 -67 8 -67 -17 0 -11 -18 8 -23 14 -4 13 -6 -6 -12 -14 -5 -21 -13 -18
-21 3 -7 1 -16 -4 -19 -15 -9 -12 -35 4 -35 7 0 16 9 19 21 3 13 10 18 17 14
9 -5 9 -10 1 -18 -6 -6 -11 -33 -11 -60 0 -26 -4 -46 -9 -43 -14 9 -22 -40
-11 -69 7 -18 15 -25 25 -21 9 3 15 0 15 -8 0 -8 -6 -16 -12 -19 -7 -2 -9 -8
-5 -13 4 -5 12 -2 17 6 8 13 11 13 26 -2 21 -21 9 -44 -14 -26 -14 10 -15 10
-4 -2 13 -15 17 -44 4 -36 -4 2 -14 1 -21 -3 -8 -6 -3 -12 18 -21 17 -7 31
-16 31 -21 0 -13 -27 -11 -35 2 -4 6 -13 8 -21 5 -10 -4 -13 6 -11 42 1 26 -2
49 -8 52 -6 3 -11 -15 -13 -44 -3 -53 16 -86 50 -86 10 0 18 -5 18 -11 0 -5
-4 -7 -10 -4 -6 4 -10 -5 -10 -21 0 -21 4 -25 20 -21 13 3 20 0 20 -9 0 -8 7
-14 16 -14 9 0 12 -5 8 -12 -5 -8 -2 -9 9 -5 20 7 22 -4 5 -21 -6 -6 -8 -15
-4 -19 4 -4 11 -1 16 7 6 10 10 11 10 3 0 -7 -9 -17 -19 -23 -12 -6 -17 -17
-14 -28 3 -14 -1 -19 -19 -18 -13 1 -22 -4 -20 -11 1 -7 -4 -13 -10 -13 -25 0
-40 -17 -34 -37 5 -15 13 -19 34 -17 15 2 21 1 15 -2 -15 -7 1 -43 23 -57 21
-12 17 -27 -6 -27 -23 0 -24 -4 -9 -31 9 -17 7 -21 -10 -26 -12 -3 -21 -9 -21
-13 0 -8 31 -23 35 -18 1 2 7 12 13 23 7 12 12 14 12 6 0 -11 3 -11 15 -1 13
11 14 10 10 -2 -4 -9 0 -18 9 -21 9 -4 13 -13 10 -22 -5 -12 -10 -13 -20 -4
-15 12 -54 3 -54 -12 0 -6 5 -7 10 -4 13 8 9 -57 -4 -67 -5 -3 -2 -14 7 -23
10 -9 17 -21 17 -26 0 -8 -22 -12 -36 -6 -10 4 -24 -31 -18 -46 3 -8 15 -13
29 -12 18 2 22 -1 18 -13 -5 -11 -2 -14 10 -9 21 8 22 -1 1 -24 -9 -10 -13
-23 -9 -29 5 -8 10 -9 14 -2 4 7 13 5 26 -5 20 -15 20 -15 -2 -8 -14 4 -23 2
-23 -5 0 -6 -4 -9 -9 -5 -6 3 -9 -4 -8 -15 1 -12 8 -20 19 -20 10 0 18 -6 18
-14 0 -12 -7 -13 -31 -6 -23 7 -35 6 -45 -5 -8 -7 -10 -16 -5 -19 8 -5 9 -38
2 -81 0 -5 -6 -4 -13 3 -8 8 -8 15 1 25 9 12 8 16 -6 21 -10 4 -19 2 -21 -4
-3 -8 -8 -7 -18 1 -11 9 -14 8 -14 -4 0 -8 3 -23 6 -32 6 -13 9 -14 16 -3 7
10 11 9 23 -6 8 -11 27 -21 41 -22 27 -3 70 -34 47 -34 -7 0 -15 5 -18 10 -5
8 -11 7 -20 0 -8 -7 -20 -8 -27 -4 -7 5 -21 7 -30 6 -10 -2 -18 2 -18 7 0 6
-4 11 -10 11 -5 0 -10 -9 -10 -20 0 -13 5 -18 15 -14 10 4 15 0 15 -12 0 -14
3 -15 8 -6 7 9 15 10 35 3 15 -6 27 -13 27 -16 0 -11 -32 -39 -47 -41 -20 -3
-26 -11 -19 -22 8 -14 56 -2 56 14 0 15 16 19 24 6 3 -5 -6 -19 -19 -30 -14
-12 -25 -27 -25 -33 0 -6 -7 -9 -15 -5 -8 3 -15 1 -15 -4 0 -6 -7 -10 -15 -10
-8 0 -15 -7 -15 -15 0 -9 6 -12 15 -9 8 4 15 10 15 15 0 6 8 6 19 0 10 -6 21
-8 24 -5 3 3 11 3 18 -1 8 -6 5 -14 -12 -27 -16 -13 -20 -21 -11 -25 6 -2 10
-9 6 -14 -10 -17 7 -51 22 -45 9 3 12 1 9 -4 -4 -6 -12 -10 -18 -9 -26 3 -38
-2 -31 -13 4 -6 8 -38 10 -70 2 -51 1 -58 -12 -48 -7 7 -14 19 -14 26 0 8 -7
14 -15 14 -8 0 -15 5 -15 10 0 6 -5 10 -11 10 -12 0 -2 -42 13 -51 5 -3 3 -9
-6 -12 -33 -13 -14 -23 39 -23 30 1 55 -2 55 -6 0 -5 -4 -8 -10 -8 -14 0 -13
-33 2 -48 9 -9 9 -12 0 -12 -7 0 -12 -7 -12 -16 0 -8 -5 -12 -11 -9 -6 4 -8
13 -5 21 7 19 -20 30 -38 15 -7 -6 -16 -8 -19 -4 -13 12 -7 -35 8 -63 8 -16
15 -26 16 -21 1 4 2 12 3 19 0 6 8 13 16 15 13 4 13 3 0 -6 -13 -9 -12 -11 4
-11 15 0 16 -3 6 -15 -7 -8 -9 -15 -4 -15 5 0 2 -5 -6 -10 -10 -6 -11 -10 -2
-10 6 0 12 -7 12 -15 0 -24 -14 -17 -32 16 -10 17 -22 27 -28 24 -15 -9 -12
-35 5 -41 18 -7 20 -35 4 -51 -17 -17 27 -39 47 -22 11 9 14 8 14 -4 0 -9 6
-17 13 -19 8 -2 4 -11 -11 -28 -13 -13 -20 -17 -17 -9 3 9 -1 22 -10 29 -13
11 -19 11 -33 -4 -16 -16 -16 -17 3 -10 l20 7 -20 -23 c-14 -16 -16 -24 -7
-27 6 -3 12 -14 12 -24 0 -11 -4 -17 -10 -14 -5 3 -10 0 -10 -8 0 -19 25 -28
38 -15 8 8 16 7 28 -3 9 -8 19 -13 21 -11 14 10 13 -1 -3 -13 -10 -8 -14 -15
-9 -14 18 4 45 -13 45 -27 0 -17 -39 -39 -62 -35 -10 1 -28 -5 -40 -13 -21
-15 -21 -16 -3 -18 11 0 28 -1 38 0 9 1 17 -3 17 -9 0 -7 9 -9 21 -6 11 3 27
3 35 0 18 -7 18 -30 0 -30 -8 0 -15 3 -14 6 2 19 -4 21 -18 6 -13 -12 -19 -13
-30 -4 -18 14 -23 9 -30 -25 -3 -19 0 -26 11 -26 12 0 15 6 10 21 -6 18 -5 19
14 7 12 -7 21 -16 21 -19 0 -4 9 -9 20 -12 11 -3 20 -12 20 -21 0 -18 -15 -21
-25 -6 -3 6 -1 10 6 10 7 0 10 2 7 5 -3 3 -13 2 -22 -1 -12 -5 -16 -14 -13
-31 6 -32 -8 -38 -28 -11 -16 23 -16 23 -13 -12 2 -23 8 -35 18 -35 24 -1 60
-16 60 -25 0 -5 -11 -21 -25 -36 -23 -24 -31 -22 -26 9 0 4 -9 7 -21 7 -21 0
-21 0 -2 -16 13 -11 15 -17 7 -20 -15 -7 -17 -44 -3 -44 6 0 10 5 10 10 0 19
28 10 33 -11 4 -15 11 -20 21 -16 10 4 16 1 16 -9 0 -8 4 -13 9 -9 15 8 9 -38
-6 -56 -11 -13 -10 -18 5 -33 17 -15 51 -14 53 3 0 3 3 15 6 26 6 27 14 74 17
106 2 14 5 30 8 35 12 21 17 60 8 74 -5 9 -5 19 2 27 7 9 7 17 -1 27 -9 11 -8
17 4 29 14 14 14 17 -2 26 -17 10 -17 10 0 11 16 0 17 10 16 88 -2 48 0 113 4
144 5 40 2 65 -7 84 -13 24 -12 29 5 47 16 18 19 35 18 126 -1 58 2 114 6 123
4 10 4 26 0 35 -9 21 -9 39 1 147 5 58 4 77 -5 72 -6 -4 -11 -2 -11 3 0 6 3
11 8 11 4 0 8 11 8 25 1 14 -2 22 -8 19 -5 -3 -4 3 3 14 10 17 10 23 0 36 -11
13 -11 19 -1 32 16 18 22 64 9 64 -5 0 -9 14 -9 30 0 17 4 30 9 30 5 0 9 21 9
46 0 43 -1 45 -24 40 -14 -4 -24 -2 -24 4 0 5 7 10 15 10 8 0 15 8 16 18 0 14
2 14 9 -3 7 -16 9 -17 9 -3 1 9 -3 20 -9 23 -5 3 -10 14 -10 23 0 14 2 15 9 3
7 -11 11 -5 17 23 5 27 3 41 -7 46 -10 7 -10 11 0 24 12 15 8 20 -11 17 -11
-1 -10 13 1 24 15 15 21 64 9 71 -6 4 -5 10 3 15 11 7 11 9 2 10 -7 1 -17 3
-23 4 -5 1 -13 3 -17 4 -5 1 0 6 10 12 28 16 42 61 22 71 -13 8 -13 12 1 39
14 28 14 32 -1 43 -15 11 -15 14 4 38 29 37 26 55 -10 63 -21 5 -29 12 -27 23
2 10 11 16 21 14 17 -3 21 11 18 50 -1 9 3 19 9 23 5 3 10 12 10 18 0 7 -5 4
-11 -5 -6 -11 -21 -17 -37 -17 -24 2 -24 2 -4 6 12 2 22 11 22 19 0 8 7 14 15
14 8 0 15 9 15 20 0 11 -6 20 -12 20 -8 0 -9 3 -3 8 16 12 18 92 2 92 -14 0
-12 56 3 65 4 3 4 22 0 42 -6 24 -5 40 1 44 15 9 20 69 7 92 -8 16 -8 22 1 25
14 5 15 42 0 42 -5 0 -7 5 -4 10 4 6 8 31 9 56 2 37 -2 52 -21 74 -19 24 -20
27 -6 24 13 -4 21 4 29 25 7 16 8 33 3 38 -4 4 -5 35 -1 68 4 33 7 84 6 114
-1 30 2 66 7 79 6 16 5 36 -3 60 -10 26 -10 36 -2 39 13 4 7 40 -9 61 -8 10
-7 16 3 22 8 5 11 12 8 15 -4 4 -2 18 3 32 10 27 -5 58 -22 47 -5 -3 -9 0 -9
5 0 6 5 11 10 11 6 0 10 7 10 16 0 8 5 12 10 9 13 -8 13 18 -1 32 -7 7 -8 22
0 49 8 30 8 41 -4 54 -9 10 -11 20 -6 26 5 5 11 27 12 49 2 30 -1 39 -11 37
-11 -3 -11 0 -1 12 17 21 23 108 8 118 -9 5 -9 10 1 20 14 14 16 58 2 58 -5 0
-10 11 -10 25 0 14 5 25 10 25 13 0 9 242 -4 252 -6 4 -6 12 0 20 7 10 10 258
4 353 0 11 0 52 1 90 2 47 -1 69 -8 68 -8 -2 -9 7 -3 27 4 15 7 30 5 32 -2 2
-6 19 -8 39 -4 43 -15 61 -30 54 -7 -3 -2 2 11 11 15 11 22 27 22 48 0 41 -25
112 -34 97 -4 -6 -4 -15 -1 -21 3 -5 2 -10 -4 -10 -5 0 -18 -3 -28 -6 -17 -6
-17 -6 -2 11 13 13 15 25 9 45 -5 16 -6 31 -3 34 3 3 0 12 -7 21 -13 16 -50
21 -50 7z m-95 -328 c0 -12 8 -20 23 -22 19 -3 20 -5 8 -18 -8 -8 -22 -14 -30
-14 -9 0 -16 -5 -16 -12 0 -6 -3 -8 -6 -5 -4 4 -2 13 5 21 9 10 8 15 -3 19 -9
4 -12 15 -9 32 6 29 28 29 28 -1z m195 -104 c0 -5 -2 -10 -4 -10 -3 0 -8 5
-11 10 -3 6 -1 10 4 10 6 0 11 -4 11 -10z m-190 -87 c0 -10 -8 -27 -17 -38
-13 -16 -15 -17 -10 -2 4 9 2 17 -3 17 -14 0 -12 27 3 33 22 9 27 7 27 -10z
m-20 -464 c0 -6 7 -9 15 -5 8 3 15 1 15 -4 0 -6 -5 -10 -12 -10 -6 0 -19 -7
-28 -15 -16 -14 -17 -13 -16 15 1 27 26 46 26 19z m0 -101 c0 -5 -7 -8 -15 -8
-17 0 -18 2 -9 25 5 13 8 14 15 3 5 -7 9 -16 9 -20z m4 -62 c-3 -8 2 -16 10
-19 22 -8 20 -43 -1 -51 -10 -3 -24 -9 -31 -12 -9 -4 -10 0 -3 18 9 23 1 51
-13 49 -31 -4 -45 1 -40 14 4 8 10 15 16 15 5 0 6 -4 3 -10 -3 -5 -1 -10 4
-10 6 0 11 7 11 16 0 8 5 12 10 9 6 -3 10 -1 10 6 0 9 3 9 14 -1 8 -6 13 -17
10 -24z m14 -198 c10 5 27 -26 19 -34 -4 -4 -13 -2 -19 4 -9 9 -9 12 2 12 7 0
11 3 8 6 -11 11 -50 -17 -44 -32 3 -8 1 -14 -4 -14 -11 0 -13 34 -3 69 6 23 7
23 20 5 8 -10 17 -18 21 -16z m182 -78 c0 -5 -5 -10 -11 -10 -5 0 -7 5 -4 10
3 6 8 10 11 10 2 0 4 -4 4 -10z m-143 -22 c-3 -8 -6 -5 -6 6 -1 11 2 17 5 13
3 -3 4 -12 1 -19z m-39 -16 c16 -11 8 -34 -19 -50 -12 -8 -18 -9 -15 -3 4 5
-2 15 -11 20 -17 10 -17 12 1 26 23 17 26 18 44 7z m-18 -116 c0 -12 34 -30
52 -27 10 1 4 -36 -7 -46 -4 -5 -5 -2 0 6 7 12 1 13 -33 7 l-42 -6 0 40 c0 29
4 40 15 40 8 0 15 -6 15 -14z m18 -116 l16 -25 -24 20 c-13 11 -20 15 -17 9 4
-7 -2 -14 -13 -17 -21 -5 -28 7 -10 18 6 4 7 11 4 17 -4 6 1 8 11 6 10 -1 25
-14 33 -28z m-12 -68 c-2 -9 -8 -18 -14 -20 -7 -2 -10 -8 -6 -13 3 -5 -2 -9
-10 -9 -19 0 -29 17 -19 33 4 6 8 15 9 20 1 4 2 9 3 11 4 12 39 -8 37 -22z
m14 -177 c0 -2 -8 -9 -18 -14 -14 -7 -19 -6 -19 3 0 6 9 13 19 13 10 1 18 0
18 -2z m-30 -75 c0 -5 -2 -10 -4 -10 -3 0 -8 5 -11 10 -3 6 -1 10 4 10 6 0 11
-4 11 -10z m-4 -23 c3 -2 2 -11 -2 -20 -7 -18 -34 -12 -34 8 0 8 -8 11 -20 8
-12 -3 -20 0 -20 7 0 9 11 11 36 7 20 -3 38 -8 40 -10z m34 -67 c0 -5 -5 -10
-11 -10 -5 0 -7 5 -4 10 3 6 8 10 11 10 2 0 4 -4 4 -10z m-20 -206 c0 -3 -6
-12 -14 -19 -12 -12 -15 -12 -19 -1 -3 8 -3 17 0 20 8 8 33 8 33 0z m-13 -68
c-2 -6 -12 -13 -23 -15 -15 -3 -16 -1 -6 11 6 8 9 18 5 22 -4 4 1 4 10 0 10
-3 16 -12 14 -18z m20 -57 c1 -10 -9 -25 -23 -34 -23 -15 -24 -14 -24 5 0 38
45 66 47 29z m-18 -103 c-5 -6 -9 -21 -9 -35 l0 -26 -13 25 c-7 14 -9 27 -5
28 4 2 5 8 2 13 -3 6 0 17 7 25 12 14 14 14 20 -3 4 -10 3 -22 -2 -27z m51 30
c0 -3 -4 -8 -10 -11 -5 -3 -10 -1 -10 4 0 6 5 11 10 11 6 0 10 -2 10 -4z m5
-136 c3 -5 1 -10 -4 -10 -6 0 -11 5 -11 10 0 6 2 10 4 10 3 0 8 -4 11 -10z
m-31 -45 c-4 -8 -8 -15 -10 -15 -2 0 -4 7 -4 15 0 8 4 15 10 15 5 0 7 -7 4
-15z m-4 -125 c0 -5 -5 -10 -11 -10 -5 0 -7 5 -4 10 3 6 8 10 11 10 2 0 4 -4
4 -10z m175 -100 c3 -5 1 -10 -4 -10 -6 0 -11 5 -11 10 0 6 2 10 4 10 3 0 8
-4 11 -10z m-45 -21 c0 -6 -4 -7 -10 -4 -5 3 -10 11 -10 16 0 6 5 7 10 4 6 -3
10 -11 10 -16z m-170 -109 c0 -5 -5 -10 -11 -10 -5 0 -7 5 -4 10 3 6 8 10 11
10 2 0 4 -4 4 -10z m40 0 c0 -5 -2 -10 -4 -10 -3 0 -8 5 -11 10 -3 6 -1 10 4
10 6 0 11 -4 11 -10z m34 -29 c4 -5 -1 -8 -9 -7 -21 3 -31 16 -12 16 9 0 18
-4 21 -9z m-34 -31 c0 -5 -5 -10 -11 -10 -5 0 -7 5 -4 10 3 6 8 10 11 10 2 0
4 -4 4 -10z m20 -330 c0 -5 -2 -10 -4 -10 -3 0 -8 5 -11 10 -3 6 -1 10 4 10 6
0 11 -4 11 -10z m-10 -303 c0 -3 -8 -4 -17 -3 -10 2 -17 6 -15 9 1 4 2 12 2
18 0 6 7 4 15 -5 8 -8 15 -17 15 -19z m-30 -874 c0 -5 -4 -15 -10 -23 -11 -18
-25 -7 -17 15 6 15 27 21 27 8z"/>
<path d="M6730 4900 c0 -5 5 -10 10 -10 6 0 10 5 10 10 0 6 -4 10 -10 10 -5 0
-10 -4 -10 -10z"/>
<path d="M1270 5431 l0 -931 366 0 c416 0 515 9 677 64 242 83 426 253 517
479 54 136 64 195 64 392 1 210 -15 286 -90 440 -118 241 -314 386 -624 462
-52 13 -147 17 -487 20 l-423 5 0 -931z m849 609 c210 -52 344 -171 408 -365
25 -73 27 -94 28 -245 0 -156 -2 -169 -28 -245 -65 -184 -182 -296 -371 -354
-83 -26 -243 -41 -428 -41 l-138 0 0 641 0 642 223 -6 c177 -5 239 -10 306
-27z"/>
<path d="M3240 5430 l0 -930 655 0 655 0 0 145 0 145 -495 0 -495 0 0 255 0
255 475 0 475 0 0 145 0 145 -475 0 -475 0 0 240 0 240 495 0 495 0 0 145 0
145 -655 0 -655 0 0 -930z"/>
<path d="M4703 6343 c4 -14 128 -337 212 -554 13 -35 13 -38 -12 -60 -45 -43
-134 -187 -167 -272 -51 -130 -61 -193 -60 -377 1 -149 3 -174 27 -253 122
-400 461 -647 887 -647 573 0 971 440 919 1014 -19 206 -116 424 -238 540 -17
17 -31 34 -31 39 0 4 50 136 110 291 61 156 110 286 110 289 0 4 -78 7 -173 7
l-172 0 -75 -206 c-67 -186 -76 -205 -94 -201 -12 3 -59 15 -106 28 -72 20
-110 23 -245 24 -161 0 -232 -10 -343 -49 -42 -15 -43 -15 -51 7 -5 12 -39
106 -76 210 l-68 187 -180 0 c-166 0 -179 -1 -174 -17z m1095 -677 c28 -9 52
-20 52 -24 0 -26 -265 -721 -271 -710 -6 12 -132 354 -220 601 l-39 107 23 11
c91 40 345 49 455 15z m367 -297 c64 -125 77 -321 31 -464 -44 -139 -130 -246
-252 -315 -51 -30 -155 -70 -179 -70 -7 0 48 155 132 373 79 204 160 414 180
466 40 105 40 105 88 10z m-877 -545 c62 -160 112 -294 112 -297 0 -12 -129
42 -182 76 -74 47 -161 145 -198 222 -83 173 -78 406 11 566 l23 39 61 -157
c34 -87 112 -289 173 -449z"/>
<path d="M6669 5848 c-6 -20 -6 -39 1 -43 4 -3 10 6 12 20 3 14 1 25 -3 25 -5
0 -9 -1 -10 -2z"/>
<path d="M6655 5660 c-3 -5 1 -10 10 -10 9 0 13 5 10 10 -3 6 -8 10 -10 10 -2
0 -7 -4 -10 -10z"/>
<path d="M775 5589 c-4 -6 -5 -13 -2 -16 7 -7 27 6 27 18 0 12 -17 12 -25 -2z"/>
<path d="M770 4870 c0 -23 15 -27 23 -6 3 8 -1 17 -9 20 -9 4 -14 -1 -14 -14z"/>
<path d="M4085 4212 c-3 -3 -5 -68 -5 -144 l0 -138 105 0 105 0 0 -527 -1
-528 100 -3 101 -3 0 268 c0 147 3 386 7 530 l6 262 106 3 106 3 0 140 0 140
-312 1 c-172 1 -315 -1 -318 -4z m593 -139 l-3 -78 -107 -3 -108 -3 0 -432 c0
-238 -3 -476 -7 -529 l-6 -98 -59 0 c-48 0 -58 3 -59 18 -1 9 0 248 1 530 l2
512 -106 0 -106 0 0 80 0 80 280 0 281 0 -3 -77z"/>
<path d="M1185 3551 c-4 -363 -4 -664 -1 -670 6 -9 182 -17 188 -8 0 1 4 178
7 392 l6 390 36 -100 c52 -143 253 -658 262 -672 6 -9 36 -13 93 -13 59 0 86
4 89 13 2 6 6 308 8 670 l5 658 -96 -3 c-95 -3 -96 -3 -97 -28 -1 -14 -2 -191
-3 -395 l-3 -370 -60 155 c-33 85 -99 256 -146 380 -47 124 -89 233 -95 243
-7 14 -23 17 -97 17 l-88 0 -8 -659z m199 521 c16 -42 69 -183 118 -312 50
-129 112 -298 139 -375 79 -225 79 -224 79 309 l0 456 61 0 60 0 -6 -597 c-4
-329 -8 -604 -11 -611 -3 -9 -21 -12 -61 -10 l-57 3 -17 45 c-121 303 -245
631 -279 738 -27 82 -48 132 -56 132 -11 0 -14 -84 -16 -457 l-3 -458 -57 -3
-58 -3 0 378 c0 208 3 483 7 611 l6 232 61 0 61 0 29 -78z"/>
<path d="M2086 4148 c-3 -35 -7 -335 -8 -668 l-3 -605 101 -3 101 -3 6 168 c3
92 6 394 7 671 l1 502 -99 0 -100 0 -6 -62z m164 -495 c0 -274 -3 -549 -7
-611 l-6 -113 -61 3 -61 3 1 38 c0 20 1 294 2 607 l2 570 65 0 65 0 0 -497z"/>
<path d="M2500 3913 c0 -164 -3 -466 -7 -670 l-6 -373 100 0 101 0 6 31 c3 17
6 141 6 275 l0 244 125 0 125 0 0 -275 0 -275 98 0 99 0 6 158 c4 86 7 388 7
670 l0 512 -100 0 -100 0 -2 -252 -3 -253 -125 0 -125 0 3 253 3 252 -106 0
-105 0 0 -297z m170 -18 l0 -255 160 0 160 0 0 113 c0 61 3 176 7 255 l6 142
61 0 61 0 -3 -597 c-2 -329 -5 -604 -7 -610 -3 -9 -25 -13 -65 -13 l-60 0 0
275 0 275 -165 0 -165 0 -2 -272 -3 -273 -60 0 -60 0 0 415 c0 228 1 502 3
608 l4 192 64 0 64 0 0 -255z"/>
<path d="M3595 4198 c-2 -7 -25 -103 -50 -213 -25 -110 -86 -371 -135 -580
-111 -473 -120 -514 -120 -526 0 -6 42 -9 107 -7 l107 3 8 40 c4 22 18 86 29
143 l22 102 123 0 123 0 10 -52 c6 -29 19 -93 29 -143 l18 -90 107 -3 c90 -2
107 0 107 13 0 8 -24 126 -54 262 -30 137 -80 370 -111 518 -31 149 -69 330
-86 402 -16 73 -29 135 -29 138 0 3 -45 5 -100 5 -72 0 -102 -4 -105 -12z
m184 -85 c5 -21 42 -191 81 -378 39 -187 93 -442 121 -567 27 -125 49 -230 49
-233 0 -3 -30 -5 -67 -3 l-68 3 -30 145 -30 145 -149 0 -150 0 -30 -145 -31
-145 -54 -3 c-29 -2 -59 -1 -66 2 -12 4 21 157 160 746 25 107 60 257 77 333
l31 137 73 0 73 0 10 -37z"/>
<path d="M3671 3883 c-5 -21 -15 -67 -21 -103 -7 -36 -27 -135 -46 -220 -19
-85 -34 -162 -34 -172 0 -16 12 -18 121 -18 110 0 120 2 115 18 -6 20 -61 310
-76 402 -5 36 -13 80 -16 98 -7 44 -31 41 -43 -5z m78 -430 c1 -22 -3 -23 -64
-23 -36 0 -65 4 -65 10 0 12 59 289 67 315 6 19 61 -249 62 -302z"/>
<path d="M6630 4090 c0 -5 5 -10 10 -10 6 0 10 5 10 10 0 6 -4 10 -10 10 -5 0
-10 -4 -10 -10z"/>
<path d="M770 4045 c0 -8 4 -15 10 -15 5 0 7 7 4 15 -4 8 -8 15 -10 15 -2 0
-4 -7 -4 -15z"/>
<path d="M777 3913 c-11 -10 -8 -43 3 -43 6 0 10 6 10 13 0 8 4 7 10 -3 5 -8
10 -12 10 -8 0 3 3 13 6 21 4 12 0 14 -17 10 -15 -4 -20 -3 -15 5 8 13 3 16
-7 5z"/>
<path d="M5083 3863 l-373 -3 0 -150 0 -150 349 0 348 0 6 -282 c5 -250 8
-292 27 -358 76 -264 258 -390 545 -377 199 9 333 82 419 230 76 129 91 250
83 671 -4 177 -7 345 -7 374 l0 52 -512 -2 c-282 -2 -681 -4 -885 -5z m1125
-527 c1 -128 -2 -254 -8 -285 -24 -131 -115 -205 -253 -204 -86 1 -131 18
-179 67 -61 62 -69 108 -75 393 l-6 253 224 3 c123 1 240 3 259 2 l35 0 3
-229z"/>
<path d="M806 3835 c4 -8 10 -12 15 -9 14 8 10 24 -6 24 -9 0 -12 -6 -9 -15z"/>
<path d="M775 3750 c3 -5 8 -10 11 -10 2 0 4 5 4 10 0 6 -5 10 -11 10 -5 0 -7
-4 -4 -10z"/>
<path d="M767 3706 c-6 -15 1 -26 15 -26 11 0 10 27 -1 34 -5 3 -11 0 -14 -8z"/>
<path d="M6647 3543 c-4 -3 -7 -11 -7 -17 0 -6 5 -5 12 2 6 6 9 14 7 17 -3 3
-9 2 -12 -2z"/>
<path d="M6644 3475 c0 -24 3 -32 10 -25 5 5 20 10 33 10 13 0 23 5 23 11 0 6
-9 8 -21 4 -19 -6 -21 -4 -16 14 4 15 1 21 -11 21 -13 0 -17 -9 -18 -35z"/>
<path d="M6685 3439 c-10 -15 3 -25 16 -12 7 7 7 13 1 17 -6 3 -14 1 -17 -5z"/>
<path d="M6641 3404 c0 -11 3 -14 6 -6 3 7 2 16 -1 19 -3 4 -6 -2 -5 -13z"/>
<path d="M6650 3371 c-7 -13 -7 -22 0 -26 6 -3 13 1 16 9 3 9 12 16 20 16 8 0
14 5 14 10 0 18 -39 11 -50 -9z"/>
<path d="M6642 3263 c5 -24 21 -26 36 -3 11 18 10 20 -14 20 -18 0 -25 -5 -22
-17z"/>
<path d="M6676 3233 c-12 -12 -5 -23 14 -23 11 0 20 4 20 9 0 11 -26 22 -34
14z"/>
<path d="M780 3170 c0 -5 5 -10 10 -10 6 0 10 5 10 10 0 6 -4 10 -10 10 -5 0
-10 -4 -10 -10z"/>
<path d="M6650 3148 c0 -19 2 -20 10 -8 13 19 13 30 0 30 -5 0 -10 -10 -10
-22z"/>
<path d="M6750 3140 c0 -5 5 -10 11 -10 5 0 7 5 4 10 -3 6 -8 10 -11 10 -2 0
-4 -4 -4 -10z"/>
<path d="M6672 3128 c-3 -23 -22 -33 -33 -17 -6 10 -9 10 -9 2 0 -7 9 -17 20
-23 25 -13 26 -30 3 -31 -14 0 -15 -2 -3 -6 16 -6 30 -23 30 -36 0 -5 -6 -5
-12 -1 -9 6 -9 3 1 -9 10 -13 18 -14 32 -6 24 13 26 41 2 32 -14 -5 -15 -3 -6
7 6 7 9 19 6 28 -4 10 -2 13 5 8 7 -4 12 -2 12 4 0 7 -8 9 -19 5 -16 -5 -20 0
-24 27 -2 18 -5 25 -5 16z"/>
<path d="M805 3090 l-30 -8 27 -1 c15 0 30 4 33 9 3 6 5 9 3 9 -2 -1 -16 -5
-33 -9z"/>
<path d="M802 3053 c2 -10 10 -18 17 -18 8 0 15 8 17 18 1 11 -4 17 -18 17
-13 0 -18 -6 -16 -17z"/>
<path d="M6670 2941 c0 -5 5 -13 10 -16 6 -3 10 -2 10 4 0 5 -4 13 -10 16 -5
3 -10 2 -10 -4z"/>
<path d="M810 2920 c0 -5 7 -10 16 -10 8 0 12 5 9 10 -3 6 -10 10 -16 10 -5 0
-9 -4 -9 -10z"/>
<path d="M6650 2891 c0 -11 26 -22 34 -14 3 3 3 10 0 14 -7 12 -34 11 -34 0z"/>
<path d="M6713 2869 c1 -22 22 -25 30 -5 3 8 -2 16 -13 19 -14 3 -18 0 -17
-14z"/>
<path d="M6685 2860 c-3 -5 -1 -10 4 -10 6 0 11 5 11 10 0 6 -2 10 -4 10 -3 0
-8 -4 -11 -10z"/>
<path d="M793 2845 c-19 -10 -20 -12 -5 -22 10 -6 16 -21 15 -35 -2 -14 4 -31
11 -37 20 -17 28 2 16 35 -7 17 -7 30 -1 33 6 4 5 12 -2 22 -10 12 -17 13 -34
4z"/>
<path d="M6645 2800 c-3 -5 -1 -10 4 -10 6 0 11 5 11 10 0 6 -2 10 -4 10 -3 0
-8 -4 -11 -10z"/>
<path d="M6680 2765 c0 -8 -5 -15 -11 -15 -5 0 -7 -5 -4 -11 8 -12 45 21 38
34 -7 13 -23 8 -23 -8z"/>
<path d="M780 2750 c0 -5 5 -10 11 -10 5 0 7 5 4 10 -3 6 -8 10 -11 10 -2 0
-4 -4 -4 -10z"/>
<path d="M1670 2705 c-119 -33 -234 -132 -307 -262 -168 -302 -175 -783 -16
-1103 62 -124 164 -231 267 -280 120 -57 273 -53 397 10 97 50 216 200 265
335 19 52 54 205 54 236 0 6 -44 8 -101 7 l-102 -3 -14 -55 c-49 -191 -164
-300 -318 -300 -123 0 -217 66 -283 197 -55 110 -67 178 -67 388 0 168 3 199
23 270 59 204 164 305 318 305 103 0 199 -55 258 -149 28 -44 60 -125 71 -178
l7 -33 100 0 101 0 -7 54 c-14 119 -81 282 -158 384 -49 65 -140 134 -216 162
-75 29 -198 35 -272 15z"/>
<path d="M2785 2680 c-6 -10 -51 -180 -210 -800 -122 -477 -203 -788 -211
-812 -5 -16 4 -18 99 -18 l105 0 6 38 c4 20 21 90 38 155 l31 117 248 0 248 0
19 -62 c11 -35 30 -105 43 -155 l24 -93 102 0 c67 0 103 4 103 11 0 12 -94
361 -152 564 -22 77 -93 338 -159 580 -65 242 -123 450 -129 463 -9 21 -16 22
-104 22 -52 0 -98 -4 -101 -10z m195 -699 c50 -189 90 -348 90 -353 0 -10
-360 -11 -360 0 -1 18 174 715 177 706 2 -5 44 -164 93 -353z"/>
<path d="M3560 2078 c0 -337 3 -706 7 -820 l6 -208 94 0 93 0 -5 583 -6 582
59 -120 c32 -66 154 -328 272 -582 l215 -462 100 -1 100 0 -2 487 c-1 269 -5
638 -9 821 l-6 333 -92 -3 -91 -3 2 -580 3 -580 -41 85 c-23 47 -145 306 -271
575 -127 270 -236 493 -242 497 -6 4 -50 8 -99 8 l-88 0 1 -612z"/>
<path d="M6630 2536 c0 -2 7 -9 15 -16 12 -10 15 -10 15 4 0 9 -7 16 -15 16
-8 0 -15 -2 -15 -4z"/>
<path d="M6643 2470 c1 -11 5 -20 9 -20 11 0 10 28 -1 35 -6 3 -9 -4 -8 -15z"/>
<path d="M6660 2395 c-25 -26 -21 -32 9 -15 20 10 36 40 22 40 -4 0 -18 -11
-31 -25z"/>
<path d="M5139 2345 c-214 -52 -368 -208 -426 -430 -28 -109 -25 -351 6 -470
76 -293 252 -446 511 -447 202 -1 332 76 423 249 39 74 76 197 126 414 64 276
137 360 286 329 75 -16 135 -69 167 -148 18 -47 22 -77 22 -172 1 -104 -2
-120 -25 -170 -14 -30 -38 -69 -53 -87 -35 -42 -138 -93 -188 -93 l-38 0 0
-150 0 -150 33 0 c58 0 166 28 234 61 85 40 195 148 241 236 70 134 94 348 58
523 -37 176 -157 342 -297 408 -176 84 -409 56 -532 -65 -101 -97 -138 -191
-220 -548 -36 -155 -62 -220 -111 -270 -109 -113 -298 -64 -356 93 -47 125
-47 313 -1 417 41 93 137 166 238 181 l43 6 0 149 0 149 -42 -1 c-24 0 -68 -7
-99 -14z"/>
<path d="M6688 2353 c7 -3 16 -2 19 1 4 3 -2 6 -13 5 -11 0 -14 -3 -6 -6z"/>
<path d="M6646 2323 c-3 -3 -6 -11 -6 -17 0 -6 5 -5 12 2 16 16 31 15 21 0
-10 -18 -13 -37 -4 -42 3 -3 11 10 17 28 9 29 8 32 -12 34 -11 1 -24 -1 -28
-5z"/>
<path d="M6650 2110 c0 -17 2 -19 14 -8 14 13 12 28 -5 28 -5 0 -9 -9 -9 -20z"/>
<path d="M810 1690 c0 -7 24 -20 36 -20 13 0 1 19 -16 23 -11 3 -20 2 -20 -3z"/>
<path d="M6665 1671 c-7 -12 0 -14 28 -12 20 3 23 -15 5 -22 -7 -3 -3 -6 8 -6
12 -1 25 6 28 15 8 22 8 23 -11 22 -10 0 -25 2 -34 6 -10 4 -20 3 -24 -3z"/>
<path d="M810 1663 c0 -5 8 -18 18 -31 16 -20 18 -21 19 -4 1 10 -7 24 -18 30
-10 7 -19 9 -19 5z"/>
<path d="M835 1590 c-3 -5 -1 -10 4 -10 6 0 11 5 11 10 0 6 -2 10 -4 10 -3 0
-8 -4 -11 -10z"/>
<path d="M808 1575 c-3 -3 -3 -15 0 -27 4 -16 10 -19 35 -14 16 3 34 6 39 6 5
0 6 5 3 10 -4 6 -16 8 -27 4 -12 -4 -24 0 -32 11 -6 9 -14 13 -18 10z"/>
<path d="M811 1494 c0 -11 3 -14 6 -6 3 7 2 16 -1 19 -3 4 -6 -2 -5 -13z"/>
<path d="M816 1391 c-3 -4 -1 -12 3 -19 6 -9 12 -8 24 6 15 17 15 18 -3 19
-11 1 -22 -2 -24 -6z"/>
<path d="M6750 1200 c0 -5 5 -10 10 -10 6 0 10 5 10 10 0 6 -4 10 -10 10 -5 0
-10 -4 -10 -10z"/>
<path d="M6250 635 c0 -8 2 -15 4 -15 2 0 6 7 10 15 3 8 1 15 -4 15 -6 0 -10
-7 -10 -15z"/>
<path d="M6285 621 c-6 -5 -19 -11 -30 -14 -19 -4 -19 -5 1 -6 12 0 27 6 34
14 14 16 10 20 -5 6z"/>
</g>
</svg>
